<svg xmlns="http://www.w3.org/2000/svg" version="1.1" xmlns:xlink="http://www.w3.org/1999/xlink" xmlns:svgjs="http://svgjs.dev/svgjs" width="1500" height="1500" viewBox="0 0 1500 1500"><rect width="1500" height="1500" fill="#000000"></rect><g transform="matrix(0.6666666666666666,0,0,0.6666666666666666,249.39393939393938,595.640329123496)"><svg viewBox="0 0 396 122" data-background-color="#000000" preserveAspectRatio="xMidYMid meet" height="462" width="1500" xmlns="http://www.w3.org/2000/svg" xmlns:xlink="http://www.w3.org/1999/xlink"><g id="tight-bounds" transform="matrix(1,0,0,1,0.2400000000000091,0.1424670354982993)"><svg viewBox="0 0 395.52 111.71077760558032" height="111.71077760558032" width="395.52"><rect width="395.52" height="121.71506592900343" fill="url(#4018e46d-c304-4aa3-a6e1-e7e4ee5cd735)" mask="url(#e6069f38-c818-4708-b066-62a296efba67)" data-fill-palette-color="tertiary"></rect><g><svg viewBox="0 0 395.52 111.71077760558032" height="111.71077760558032" width="395.52"><g><svg viewBox="0 0 395.52 111.71077760558032" height="111.71077760558032" width="395.52"><g id="textblocktransform"><svg viewBox="0 0 395.52 111.71077760558032" height="111.71077760558032" width="395.52" id="textblock"><g><rect width="395.52" height="93.53011949848914" fill="none" stroke-width="8.962371322224001" stroke="url(#4018e46d-c304-4aa3-a6e1-e7e4ee5cd735)" data-fill-palette-color="none" data-stroke-palette-color="tertiary"></rect><rect width="395.52" height="28.184946430514284" y="93.53011949848914" fill="url(#4018e46d-c304-4aa3-a6e1-e7e4ee5cd735)" data-fill-palette-color="tertiary"></rect></g><g><svg viewBox="0 0 395.52 92.53011949848914" height="92.53011949848914" width="395.52"><g transform="matrix(1,0,0,1,23.461705032,23.461705032000005)"><svg width="348.596589936" viewBox="1.5 -36 280.87 36.75" height="45.60670943448913" data-palette-color="url(#112cb355-a504-434d-8969-bf7c684a5c88)"></svg></g></svg></g><g transform="matrix(1,0,0,1,75.54432,92.53011949848914)"><svg viewBox="0 0 244.43135999999998 19.180658107091176" height="19.180658107091176" width="244.43135999999998"><g transform="matrix(1,0,0,1,20,3.2)"><svg width="204.43135999999998" viewBox="0.75 -32.05 518.19 32.4" height="12.780658107091174" data-palette-color="#000000"><path d="M14.65-11.6L14.6-9.35 14.7 0 10.75 0 10.95-9.35 10.9-11.45 0.75-32.05 5.05-32.05 5.7-30.25 12.7-15.85 13.05-15.85 20.75-30.15 21.5-32.05 25.7-32.05 14.65-11.6ZM39-25.2Q44.45-25.2 47.37-22 50.3-18.8 50.3-12.95L50.3-12.95Q50.3-6.6 47.17-3.13 44.05 0.35 38.25 0.35L38.25 0.35Q32.85 0.35 29.9-2.93 26.95-6.2 26.95-12.25L26.95-12.25Q26.95-18.45 30.1-21.83 33.25-25.2 39-25.2L39-25.2ZM38.65-22.05Q34.7-22.05 32.77-19.8 30.85-17.55 30.85-12.7L30.85-12.7Q30.85-7.5 32.75-5.15 34.65-2.8 38.55-2.8L38.55-2.8Q42.55-2.8 44.5-5.1 46.45-7.4 46.45-12.3L46.45-12.3Q46.45-17.35 44.52-19.7 42.6-22.05 38.65-22.05L38.65-22.05ZM76.34-24.9L76.2-12.25 76.2-8.65Q76.25-4.4 73.62-2.05 71 0.3 66.09 0.3L66.09 0.3Q61.25 0.3 58.7-2.02 56.15-4.35 56.25-8.65L56.25-8.65 56.3-12.45 56.25-24.9 60-24.9 59.8-9.25Q59.75-6.1 61.37-4.5 63-2.9 66.25-2.9L66.25-2.9Q69.45-2.9 71.09-4.5 72.75-6.1 72.7-9.25L72.7-9.25 72.55-24.9 76.34-24.9ZM95.94-10.05Q98.99-5.4 102.69-0.9L102.69-0.9 102.64-0.4Q100.54 0.25 99.19 0.35L99.19 0.35 98.54-0.05Q94.74-5.8 92.79-9.1L92.79-9.1 88.09-9.05 88.09-7.8 88.19 0 84.49 0 84.64-7.5 84.49-24.9 92.99-24.95Q96.94-24.95 99.07-23.1 101.19-21.25 101.19-17.75L101.19-17.75Q101.19-15.2 99.82-13.2 98.44-11.2 95.94-10.05L95.94-10.05ZM88.19-21.9L88.14-12.15 92.84-12Q97.29-13.25 97.29-17.45L97.29-17.45Q97.29-19.65 95.99-20.75 94.69-21.85 92.04-21.95L92.04-21.95 88.19-21.9ZM127.24-25.15Q131.39-25.15 134.44-23.4L134.44-23.4 133.74-19.95 133.29-19.8Q132.04-20.85 130.39-21.45 128.74-22.05 126.84-22.05L126.84-22.05Q123.14-22.05 121.19-19.68 119.24-17.3 119.24-12.6L119.24-12.6Q119.24-7.85 121.19-5.35 123.14-2.85 126.84-2.85L126.84-2.85Q128.64-2.85 130.46-3.48 132.29-4.1 133.74-5.15L133.74-5.15 134.19-5 133.84-1.55Q130.44 0.3 126.69 0.3L126.69 0.3Q121.19 0.3 118.24-2.98 115.29-6.25 115.29-12.3L115.29-12.3Q115.29-18.45 118.41-21.8 121.54-25.15 127.24-25.15L127.24-25.15ZM153.78-3.15L153.99-2.8 153.74 0 140.49 0 140.64-7.5 140.49-24.9 144.24-24.9 144.09-7.8 144.19-3.15 153.78-3.15ZM167.48-25.2Q172.93-25.2 175.86-22 178.78-18.8 178.78-12.95L178.78-12.95Q178.78-6.6 175.66-3.13 172.53 0.35 166.73 0.35L166.73 0.35Q161.33 0.35 158.38-2.93 155.43-6.2 155.43-12.25L155.43-12.25Q155.43-18.45 158.58-21.83 161.73-25.2 167.48-25.2L167.48-25.2ZM167.13-22.05Q163.18-22.05 161.26-19.8 159.33-17.55 159.33-12.7L159.33-12.7Q159.33-7.5 161.23-5.15 163.13-2.8 167.03-2.8L167.03-2.8Q171.03-2.8 172.98-5.1 174.93-7.4 174.93-12.3L174.93-12.3Q174.93-17.35 173.01-19.7 171.08-22.05 167.13-22.05L167.13-22.05ZM199.08-24.9L199.28-24.6 199.03-21.45 194.38-21.8 191.88-21.8 191.73-7.8 191.88 0 188.13 0 188.28-7.5 188.18-21.8 185.68-21.8 180.93-21.45 180.63-21.8 180.93-24.9 199.08-24.9ZM226.23-24.9L226.08-7.8 226.18 0 222.48 0 222.63-7.5 222.58-10.9 209.03-10.85 208.98-7.8 209.08 0 205.38 0 205.53-7.5 205.38-24.9 209.13-24.9 209.03-14.2 215.78-14.15 222.58-14.2 222.48-24.9 226.23-24.9ZM243.73-3L250.38-3.2 250.68-2.9 250.33 0 235.18 0 235.33-7.5 235.18-24.9 250.43-24.9 250.68-24.6 250.38-21.7 244.08-21.9 238.88-21.85 238.83-14.3 243.78-14.25 248.13-14.4 248.38-14.05 248.08-11.1 243.48-11.25 238.83-11.2 238.78-7.8 238.83-3.05 243.73-3ZM264.27-25.15Q267.32-25.15 270.37-23.95L270.37-23.95 269.72-20.25 269.12-20.1Q267.72-21.2 266.47-21.73 265.22-22.25 263.87-22.25L263.87-22.25Q261.72-22.25 260.47-21.13 259.22-20 259.22-18.55L259.22-18.55Q259.22-17.1 260.45-16.2 261.67-15.3 264.22-14.2L264.22-14.2Q266.47-13.2 267.8-12.4 269.12-11.6 270.1-10.28 271.07-8.95 271.07-7.05L271.07-7.05Q271.07-5.1 270.02-3.43 268.97-1.75 266.95-0.73 264.92 0.3 262.12 0.3L262.12 0.3Q260.37 0.3 258.45-0.13 256.52-0.55 254.87-1.4L254.87-1.4 255.32-5.35 255.82-5.55Q257.22-4.15 259.1-3.38 260.97-2.6 262.57-2.6L262.57-2.6Q264.67-2.6 266.02-3.73 267.37-4.85 267.37-6.45L267.37-6.45Q267.37-7.95 266.15-8.85 264.92-9.75 262.32-10.95L262.32-10.95Q260.17-11.9 258.8-12.7 257.42-13.5 256.47-14.83 255.52-16.15 255.52-18.05L255.52-18.05Q255.52-20.05 256.6-21.65 257.67-23.25 259.65-24.2 261.62-25.15 264.27-25.15L264.27-25.15ZM297.07-24.9L305.82 0 302.07 0 301.47-2.7 300.17-6.4 294.22-6.45 288.92-6.4 287.57-2.9 286.87 0 283.17 0 292.77-24.9 297.07-24.9ZM294.52-9.4L299.12-9.45 294.97-21.25 294.67-21.25 290.12-9.45 294.52-9.4ZM323.47-10.05Q326.52-5.4 330.22-0.9L330.22-0.9 330.17-0.4Q328.07 0.25 326.72 0.35L326.72 0.35 326.07-0.05Q322.27-5.8 320.32-9.1L320.32-9.1 315.62-9.05 315.62-7.8 315.72 0 312.02 0 312.17-7.5 312.02-24.9 320.52-24.95Q324.47-24.95 326.59-23.1 328.72-21.25 328.72-17.75L328.72-17.75Q328.72-15.2 327.34-13.2 325.97-11.2 323.47-10.05L323.47-10.05ZM315.72-21.9L315.67-12.15 320.37-12Q324.82-13.25 324.82-17.45L324.82-17.45Q324.82-19.65 323.52-20.75 322.22-21.85 319.57-21.95L319.57-21.95 315.72-21.9ZM345.36-3L352.01-3.2 352.31-2.9 351.96 0 336.81 0 336.96-7.5 336.81-24.9 352.06-24.9 352.31-24.6 352.01-21.7 345.71-21.9 340.51-21.85 340.46-14.3 345.41-14.25 349.76-14.4 350.01-14.05 349.71-11.1 345.11-11.25 340.46-11.2 340.41-7.8 340.46-3.05 345.36-3ZM399.76-24.9L390.46 0 386.46 0 381.56-13.6 381.26-13.6 376.11 0 372.11 0 363.96-24.9 367.71-24.9 368.16-22.25 374.26-4.15 374.51-4.15 379.96-18.7 377.91-24.9 381.81-24.9 382.36-21.95 388.46-4.15 388.76-4.15 395.51-22.05 396.11-24.9 399.76-24.9ZM408.96-24.9L408.81-7.8 408.91 0 405.21 0 405.36-7.5 405.21-24.9 408.96-24.9ZM433-24.9L433.2-24.6 432.95-21.45 428.3-21.8 425.8-21.8 425.65-7.8 425.8 0 422.05 0 422.2-7.5 422.1-21.8 419.6-21.8 414.85-21.45 414.55-21.8 414.85-24.9 433-24.9ZM460.15-24.9L460-7.8 460.1 0 456.4 0 456.55-7.5 456.5-10.9 442.95-10.85 442.9-7.8 443 0 439.3 0 439.45-7.5 439.3-24.9 443.05-24.9 442.95-14.2 449.7-14.15 456.5-14.2 456.4-24.9 460.15-24.9ZM496.65-24.9L496.5-12.25 496.5-8.65Q496.55-4.4 493.92-2.05 491.3 0.3 486.4 0.3L486.4 0.3Q481.55 0.3 479-2.02 476.45-4.35 476.55-8.65L476.55-8.65 476.6-12.45 476.55-24.9 480.3-24.9 480.1-9.25Q480.05-6.1 481.67-4.5 483.3-2.9 486.55-2.9L486.55-2.9Q489.75-2.9 491.4-4.5 493.05-6.1 493-9.25L493-9.25 492.85-24.9 496.65-24.9ZM512.14-25.15Q515.19-25.15 518.24-23.95L518.24-23.95 517.59-20.25 516.99-20.1Q515.59-21.2 514.34-21.73 513.09-22.25 511.74-22.25L511.74-22.25Q509.59-22.25 508.34-21.13 507.09-20 507.09-18.55L507.09-18.55Q507.09-17.1 508.32-16.2 509.54-15.3 512.09-14.2L512.09-14.2Q514.34-13.2 515.67-12.4 516.99-11.6 517.97-10.28 518.94-8.95 518.94-7.05L518.94-7.05Q518.94-5.1 517.89-3.43 516.84-1.75 514.82-0.73 512.79 0.3 509.99 0.3L509.99 0.3Q508.24 0.3 506.32-0.13 504.39-0.55 502.74-1.4L502.74-1.4 503.19-5.35 503.69-5.55Q505.09-4.15 506.97-3.38 508.84-2.6 510.44-2.6L510.44-2.6Q512.54-2.6 513.89-3.73 515.24-4.85 515.24-6.45L515.24-6.45Q515.24-7.95 514.02-8.85 512.79-9.75 510.19-10.95L510.19-10.95Q508.04-11.9 506.67-12.7 505.29-13.5 504.34-14.83 503.39-16.15 503.39-18.05L503.39-18.05Q503.39-20.05 504.47-21.65 505.54-23.25 507.52-24.2 509.49-25.15 512.14-25.15L512.14-25.15Z" opacity="1" transform="matrix(1,0,0,1,0,0)" fill="#000000" class="slogan-text-1" data-fill-palette-color="quaternary" id="text-1"></path></svg></g></svg></g></svg></g></svg></g></svg></g><defs></defs><mask id="20cd4ed4-0a14-4b67-a41e-737e86052866"><g id="SvgjsG1892"><svg viewBox="0 0 395.52 111.71077760558032" height="111.71077760558032" width="395.52"><g><svg viewBox="0 0 395.52 111.71077760558032" height="111.71077760558032" width="395.52"><g><svg viewBox="0 0 395.52 111.71077760558032" height="111.71077760558032" width="395.52"><g id="SvgjsG1891"><svg viewBox="0 0 395.52 111.71077760558032" height="111.71077760558032" width="395.52" id="SvgjsSvg1890"><g><rect width="395.52" height="93.53011949848914" fill="black" stroke-width="8.962371322224001" stroke="url(#4018e46d-c304-4aa3-a6e1-e7e4ee5cd735)" data-stroke-palette-color="tertiary"></rect><rect width="395.52" height="28.184946430514284" y="93.53011949848914" fill="black"></rect></g><g><svg viewBox="0 0 395.52 92.53011949848914" height="92.53011949848914" width="395.52"><g transform="matrix(1,0,0,1,23.461705032,23.461705032000005)"><svg width="348.596589936" viewBox="1.5 -36 280.87 36.75" height="45.60670943448913" data-palette-color="url(#112cb355-a504-434d-8969-bf7c684a5c88)"><path d="M19.35-7.05L6.55-7.05 6.55-10.95 19.35-10.95 19.35-7.05ZM10.1-35.25L14.6-35.25 6 0 1.5 0 10.1-35.25ZM10.2-35.25L14.7-35.25 23.3 0 18.85 0 10.2-35.25ZM31.65-3.95L26.8-3.95 41.35-31.3 46.15-31.3 31.65-3.95ZM46.15 0L26.8 0 26.8-3.95 46.15-3.95 46.15 0ZM46.15-31.3L26.8-31.3 26.8-35.25 46.15-35.25 46.15-31.3ZM73.94-15.55L63.84-15.55 63.84-19.6 73.94-19.6 73.94-15.55ZM60.54 0L60.54-35.25 65.09-35.25 65.09 0 60.54 0ZM63.59-31.3L63.59-35.25 76.44-35.25 76.44-31.3 63.59-31.3ZM97.39 0L92.84 0 92.84-17.2 97.39-17.2 97.39 0ZM86.74 0.75L86.74 0.75 87.09-3Q88.89-3 90.17-3.9 91.44-4.8 92.14-6.55 92.84-8.3 92.84-10.7L92.84-10.7 95.09-10.8Q95.09-7.4 93.99-4.8 92.89-2.2 91.02-0.73 89.14 0.75 86.74 0.75ZM87.09-3L86.74 0.75Q84.49 0.75 82.64-0.3 80.79-1.35 79.69-3.18 78.59-5 78.59-7.25L78.59-7.25 82.89-7.4Q82.89-5.5 84.17-4.25 85.44-3 87.09-3L87.09-3ZM82.89-7.4L78.59-7.25Q78.59-9.6 79.77-11.38 80.94-13.15 82.94-14.2 84.94-15.25 87.49-15.25L87.49-15.25 87.74-11.75Q85.64-11.75 84.27-10.53 82.89-9.3 82.89-7.4L82.89-7.4ZM95.19-11.75L87.74-11.75 87.49-15.25 95.19-15.25 95.19-11.75ZM95.09-10.8L92.84-10.7 92.84-17.15 95.09-17.15 95.09-10.8ZM97.39-17.1L97.39-17.1 92.84-17.1Q92.84-19.3 91.52-20.7 90.19-22.1 88.09-22.1L88.09-22.1 88.09-26Q90.79-26 92.87-24.85 94.94-23.7 96.17-21.68 97.39-19.65 97.39-17.1ZM83.39-17.7L83.39-17.7 79.19-18.55Q79.49-20.8 80.72-22.45 81.94-24.1 83.87-25.05 85.79-26 88.14-26L88.14-26 88.14-22.1Q86.29-22.1 84.97-21.03 83.64-19.95 83.39-17.7ZM114.49-6.5L114.49-6.5Q114.49-7.75 113.59-8.58 112.69-9.4 111.26-10.08 109.84-10.75 108.26-11.45 106.69-12.15 105.26-13.08 103.84-14 102.94-15.43 102.04-16.85 102.04-18.9L102.04-18.9Q102.04-18.9 102.46-18.9 102.89-18.9 103.56-18.9 104.24-18.9 104.89-18.9 105.54-18.9 105.99-18.9 106.44-18.9 106.44-18.9L106.44-18.9Q106.44-17.65 107.34-16.82 108.24-16 109.66-15.35 111.09-14.7 112.69-13.98 114.29-13.25 115.69-12.3 117.09-11.35 118.01-9.98 118.94-8.6 118.94-6.5L118.94-6.5Q118.94-6.5 118.49-6.5 118.04-6.5 117.36-6.5 116.69-6.5 116.04-6.5 115.39-6.5 114.94-6.5 114.49-6.5 114.49-6.5ZM110.24 0.75L110.24 0.75 110.24-3.2Q112.09-3.2 113.29-4.13 114.49-5.05 114.49-6.5L114.49-6.5 118.94-6.5Q118.94-4.4 117.81-2.75 116.69-1.1 114.74-0.18 112.79 0.75 110.24 0.75ZM106.44-18.9L102.04-18.9Q102.04-20.95 103.06-22.58 104.09-24.2 105.94-25.13 107.79-26.05 110.04-26.05L110.04-26.05 110.04-22.1Q108.49-22.1 107.46-21.2 106.44-20.3 106.44-18.9L106.44-18.9ZM101.29-6.7L105.49-7.55Q105.74-5.35 107.09-4.28 108.44-3.2 110.24-3.2L110.24-3.2 110.24 0.75Q107.94 0.75 105.99-0.2 104.04-1.15 102.81-2.85 101.59-4.55 101.29-6.7L101.29-6.7ZM118.99-18.6L114.74-17.75Q114.49-20 113.16-21.05 111.84-22.1 110.04-22.1L110.04-22.1 110.04-26.05Q112.39-26.05 114.29-25.1 116.19-24.15 117.44-22.48 118.69-20.8 118.99-18.6L118.99-18.6ZM128.19 0L123.64 0 123.64-25.25 128.19-25.25 128.19 0ZM142.24 0L137.69 0 137.69-17.2 142.24-17.2 142.24 0ZM142.24-17.2L137.69-17.2Q137.69-19.3 136.39-20.63 135.09-21.95 133.04-21.95L133.04-21.95 134.19-26Q136.49-26 138.31-24.85 140.14-23.7 141.19-21.7 142.24-19.7 142.24-17.2L142.24-17.2ZM128.19-17.1L126.19-17.1Q126.19-19.65 127.24-21.68 128.29-23.7 130.09-24.85 131.89-26 134.19-26L134.19-26 133.04-21.95Q130.89-21.95 129.54-20.6 128.19-19.25 128.19-17.1L128.19-17.1ZM128.19 0L123.64 0 123.64-36 128.19-36 128.19 0ZM152.43 0L147.88 0 147.88-25.25 152.43-25.25 152.43 0ZM150.13-28.6L150.13-28.6Q148.88-28.6 148.03-29.45 147.18-30.3 147.18-31.55L147.18-31.55Q147.18-32.8 148.03-33.68 148.88-34.55 150.13-34.55L150.13-34.55Q151.38-34.55 152.26-33.68 153.13-32.8 153.13-31.55L153.13-31.55Q153.13-30.3 152.26-29.45 151.38-28.6 150.13-28.6ZM176.18-8.95L171.63-8.95 171.63-16.3 176.18-16.3 176.18-8.95ZM162.13-8.95L157.58-8.95 157.58-16.3 162.13-16.3 162.13-8.95ZM167.03-22.05L166.73-22.05 166.73-26 167.03-26 167.03-22.05ZM167.03 0.75L166.73 0.75 166.73-3.2 167.03-3.2 167.03 0.75ZM162.13-16.25L157.58-16.25Q157.58-19.05 158.81-21.25 160.03-23.45 162.11-24.73 164.18-26 166.83-26L166.83-26 166.83-22.05Q164.63-22.05 163.38-20.55 162.13-19.05 162.13-16.25L162.13-16.25ZM176.18-16.25L176.18-16.25 171.63-16.25Q171.63-19.05 170.41-20.55 169.18-22.05 166.93-22.05L166.93-22.05 166.93-26Q169.58-26 171.66-24.73 173.73-23.45 174.96-21.25 176.18-19.05 176.18-16.25ZM157.58-9L157.58-9 162.13-9Q162.13-6.25 163.38-4.73 164.63-3.2 166.83-3.2L166.83-3.2 166.83 0.75Q164.18 0.75 162.11-0.53 160.03-1.8 158.81-4 157.58-6.2 157.58-9ZM171.63-9L176.18-9Q176.18-6.2 174.96-4 173.73-1.8 171.66-0.53 169.58 0.75 166.93 0.75L166.93 0.75 166.93-3.2Q169.18-3.2 170.41-4.73 171.63-6.25 171.63-9L171.63-9ZM185.38 0L180.83 0 180.83-25.25 185.38-25.25 185.38 0ZM199.43 0L194.88 0 194.88-17.2 199.43-17.2 199.43 0ZM199.43-17.2L194.88-17.2Q194.88-19.3 193.58-20.63 192.28-21.95 190.23-21.95L190.23-21.95 191.38-26Q193.68-26 195.5-24.85 197.33-23.7 198.38-21.7 199.43-19.7 199.43-17.2L199.43-17.2ZM185.38-17.1L183.38-17.1Q183.38-19.65 184.43-21.68 185.48-23.7 187.28-24.85 189.08-26 191.38-26L191.38-26 190.23-21.95Q188.08-21.95 186.73-20.6 185.38-19.25 185.38-17.1L185.38-17.1ZM230.87-15.65L215.57-15.65 215.57-19.55 230.87-19.55 230.87-15.65ZM233.92 0L229.37 0 229.37-35.25 233.92-35.25 233.92 0ZM218.62 0L214.07 0 214.07-35.25 218.62-35.25 218.62 0ZM253.22-25.25L257.77-25.25 257.77 0 253.22 0 253.22-25.25ZM239.17-25.25L243.72-25.25 243.72-8.05 239.17-8.05 239.17-25.25ZM239.17-8.05L243.72-8.05Q243.72-5.95 245.05-4.63 246.37-3.3 248.42-3.3L248.42-3.3 247.27 0.75Q244.92 0.75 243.1-0.4 241.27-1.55 240.22-3.55 239.17-5.55 239.17-8.05L239.17-8.05ZM253.22-8.2L255.22-8.2Q255.22-5.65 254.2-3.63 253.17-1.6 251.35-0.43 249.52 0.75 247.27 0.75L247.27 0.75 248.42-3.3Q250.52-3.3 251.87-4.65 253.22-6 253.22-8.2L253.22-8.2ZM268.32-25.2L263.77-25.2 263.77-35.25 268.32-35.25 268.32-25.2ZM268.32-25.25L268.32 0 263.77 0 263.77-25.25 268.32-25.25ZM282.37-17.2L282.37-8.05 277.82-8.05 277.82-17.2 282.37-17.2ZM282.37-17.2L277.82-17.2Q277.82-19.3 276.52-20.63 275.22-21.95 273.17-21.95L273.17-21.95 274.32-26Q276.62-26 278.44-24.85 280.27-23.7 281.32-21.7 282.37-19.7 282.37-17.2L282.37-17.2ZM268.32-17.1L266.32-17.1Q266.32-19.65 267.37-21.68 268.42-23.7 270.22-24.85 272.02-26 274.32-26L274.32-26 273.17-21.95Q271.02-21.95 269.67-20.6 268.32-19.25 268.32-17.1L268.32-17.1ZM277.82-8.05L277.82-8.05 282.37-8.05Q282.37-5.55 281.32-3.55 280.27-1.55 278.44-0.4 276.62 0.75 274.32 0.75L274.32 0.75 273.17-3.3Q275.22-3.3 276.52-4.63 277.82-5.95 277.82-8.05ZM266.32-8.2L266.32-8.2 268.32-8.2Q268.32-6 269.67-4.65 271.02-3.3 273.17-3.3L273.17-3.3 274.32 0.75Q272.02 0.75 270.22-0.43 268.42-1.6 267.37-3.63 266.32-5.65 266.32-8.2Z" opacity="1" transform="matrix(1,0,0,1,0,0)" fill="white" class="wordmark-text-0" id="SvgjsPath1889"></path></svg></g></svg></g><g transform="matrix(1,0,0,1,75.54432,92.53011949848914)"><svg viewBox="0 0 244.43135999999998 19.180658107091176" height="19.180658107091176" width="244.43135999999998"><g transform="matrix(1,0,0,1,20,3.2)"><svg width="204.43135999999998" viewBox="0.75 -32.05 518.19 32.4" height="12.780658107091174" data-palette-color="#000000"><path d="M14.65-11.6L14.6-9.35 14.7 0 10.75 0 10.95-9.35 10.9-11.45 0.75-32.05 5.05-32.05 5.7-30.25 12.7-15.85 13.05-15.85 20.75-30.15 21.5-32.05 25.7-32.05 14.65-11.6ZM39-25.2Q44.45-25.2 47.37-22 50.3-18.8 50.3-12.95L50.3-12.95Q50.3-6.6 47.17-3.13 44.05 0.35 38.25 0.35L38.25 0.35Q32.85 0.35 29.9-2.93 26.95-6.2 26.95-12.25L26.95-12.25Q26.95-18.45 30.1-21.83 33.25-25.2 39-25.2L39-25.2ZM38.65-22.05Q34.7-22.05 32.77-19.8 30.85-17.55 30.85-12.7L30.85-12.7Q30.85-7.5 32.75-5.15 34.65-2.8 38.55-2.8L38.55-2.8Q42.55-2.8 44.5-5.1 46.45-7.4 46.45-12.3L46.45-12.3Q46.45-17.35 44.52-19.7 42.6-22.05 38.65-22.05L38.65-22.05ZM76.34-24.9L76.2-12.25 76.2-8.65Q76.25-4.4 73.62-2.05 71 0.3 66.09 0.3L66.09 0.3Q61.25 0.3 58.7-2.02 56.15-4.35 56.25-8.65L56.25-8.65 56.3-12.45 56.25-24.9 60-24.9 59.8-9.25Q59.75-6.1 61.37-4.5 63-2.9 66.25-2.9L66.25-2.9Q69.45-2.9 71.09-4.5 72.75-6.1 72.7-9.25L72.7-9.25 72.55-24.9 76.34-24.9ZM95.94-10.05Q98.99-5.4 102.69-0.9L102.69-0.9 102.64-0.4Q100.54 0.25 99.19 0.35L99.19 0.35 98.54-0.05Q94.74-5.8 92.79-9.1L92.79-9.1 88.09-9.05 88.09-7.8 88.19 0 84.49 0 84.64-7.5 84.49-24.9 92.99-24.95Q96.94-24.95 99.07-23.1 101.19-21.25 101.19-17.75L101.19-17.75Q101.19-15.2 99.82-13.2 98.44-11.2 95.94-10.05L95.94-10.05ZM88.19-21.9L88.14-12.15 92.84-12Q97.29-13.25 97.29-17.45L97.29-17.45Q97.29-19.65 95.99-20.75 94.69-21.85 92.04-21.95L92.04-21.95 88.19-21.9ZM127.24-25.15Q131.39-25.15 134.44-23.4L134.44-23.4 133.74-19.95 133.29-19.8Q132.04-20.85 130.39-21.45 128.74-22.05 126.84-22.05L126.84-22.05Q123.14-22.05 121.19-19.68 119.24-17.3 119.24-12.6L119.24-12.6Q119.24-7.85 121.19-5.35 123.14-2.85 126.84-2.85L126.84-2.85Q128.64-2.85 130.46-3.48 132.29-4.1 133.74-5.15L133.74-5.15 134.19-5 133.84-1.55Q130.44 0.3 126.69 0.3L126.69 0.3Q121.19 0.3 118.24-2.98 115.29-6.25 115.29-12.3L115.29-12.3Q115.29-18.45 118.41-21.8 121.54-25.15 127.24-25.15L127.24-25.15ZM153.78-3.15L153.99-2.8 153.74 0 140.49 0 140.64-7.5 140.49-24.9 144.24-24.9 144.09-7.8 144.19-3.15 153.78-3.15ZM167.48-25.2Q172.93-25.2 175.86-22 178.78-18.8 178.78-12.95L178.78-12.95Q178.78-6.6 175.66-3.13 172.53 0.35 166.73 0.35L166.73 0.35Q161.33 0.35 158.38-2.93 155.43-6.2 155.43-12.25L155.43-12.25Q155.43-18.45 158.58-21.83 161.73-25.2 167.48-25.2L167.48-25.2ZM167.13-22.05Q163.18-22.05 161.26-19.8 159.33-17.55 159.33-12.7L159.33-12.7Q159.33-7.5 161.23-5.15 163.13-2.8 167.03-2.8L167.03-2.8Q171.03-2.8 172.98-5.1 174.93-7.4 174.93-12.3L174.93-12.3Q174.93-17.35 173.01-19.7 171.08-22.05 167.13-22.05L167.13-22.05ZM199.08-24.9L199.28-24.6 199.03-21.45 194.38-21.8 191.88-21.8 191.73-7.8 191.88 0 188.13 0 188.28-7.5 188.18-21.8 185.68-21.8 180.93-21.45 180.63-21.8 180.93-24.9 199.08-24.9ZM226.23-24.9L226.08-7.8 226.18 0 222.48 0 222.63-7.5 222.58-10.9 209.03-10.85 208.98-7.8 209.08 0 205.38 0 205.53-7.5 205.38-24.9 209.13-24.9 209.03-14.2 215.78-14.15 222.58-14.2 222.48-24.9 226.23-24.9ZM243.73-3L250.38-3.2 250.68-2.9 250.33 0 235.18 0 235.33-7.5 235.18-24.9 250.43-24.9 250.68-24.6 250.38-21.7 244.08-21.9 238.88-21.85 238.83-14.3 243.78-14.25 248.13-14.4 248.38-14.05 248.08-11.1 243.48-11.25 238.83-11.2 238.78-7.8 238.83-3.05 243.73-3ZM264.27-25.15Q267.32-25.15 270.37-23.95L270.37-23.95 269.72-20.25 269.12-20.1Q267.72-21.2 266.47-21.73 265.22-22.25 263.87-22.25L263.87-22.25Q261.72-22.25 260.47-21.13 259.22-20 259.22-18.55L259.22-18.55Q259.22-17.1 260.45-16.2 261.67-15.3 264.22-14.2L264.22-14.2Q266.47-13.2 267.8-12.4 269.12-11.6 270.1-10.28 271.07-8.95 271.07-7.05L271.07-7.05Q271.07-5.1 270.02-3.43 268.97-1.75 266.95-0.73 264.92 0.3 262.12 0.3L262.12 0.3Q260.37 0.3 258.45-0.13 256.52-0.55 254.87-1.4L254.87-1.4 255.32-5.35 255.82-5.55Q257.22-4.15 259.1-3.38 260.97-2.6 262.57-2.6L262.57-2.6Q264.67-2.6 266.02-3.73 267.37-4.85 267.37-6.45L267.37-6.45Q267.37-7.95 266.15-8.85 264.92-9.75 262.32-10.95L262.32-10.95Q260.17-11.9 258.8-12.7 257.42-13.5 256.47-14.83 255.52-16.15 255.52-18.05L255.52-18.05Q255.52-20.05 256.6-21.65 257.67-23.25 259.65-24.2 261.62-25.15 264.27-25.15L264.27-25.15ZM297.07-24.9L305.82 0 302.07 0 301.47-2.7 300.17-6.4 294.22-6.45 288.92-6.4 287.57-2.9 286.87 0 283.17 0 292.77-24.9 297.07-24.9ZM294.52-9.4L299.12-9.45 294.97-21.25 294.67-21.25 290.12-9.45 294.52-9.4ZM323.47-10.05Q326.52-5.4 330.22-0.9L330.22-0.9 330.17-0.4Q328.07 0.25 326.72 0.35L326.72 0.35 326.07-0.05Q322.27-5.8 320.32-9.1L320.32-9.1 315.62-9.05 315.62-7.8 315.72 0 312.02 0 312.17-7.5 312.02-24.9 320.52-24.95Q324.47-24.95 326.59-23.1 328.72-21.25 328.72-17.75L328.72-17.75Q328.72-15.2 327.34-13.2 325.97-11.2 323.47-10.05L323.47-10.05ZM315.72-21.9L315.67-12.15 320.37-12Q324.82-13.25 324.82-17.45L324.82-17.45Q324.82-19.65 323.52-20.75 322.22-21.85 319.57-21.95L319.57-21.95 315.72-21.9ZM345.36-3L352.01-3.2 352.31-2.9 351.96 0 336.81 0 336.96-7.5 336.81-24.9 352.06-24.9 352.31-24.6 352.01-21.7 345.71-21.9 340.51-21.85 340.46-14.3 345.41-14.25 349.76-14.4 350.01-14.05 349.71-11.1 345.11-11.25 340.46-11.2 340.41-7.8 340.46-3.05 345.36-3ZM399.76-24.9L390.46 0 386.46 0 381.56-13.6 381.26-13.6 376.11 0 372.11 0 363.96-24.9 367.71-24.9 368.16-22.25 374.26-4.15 374.51-4.15 379.96-18.7 377.91-24.9 381.81-24.9 382.36-21.95 388.46-4.15 388.76-4.15 395.51-22.05 396.11-24.9 399.76-24.9ZM408.96-24.9L408.81-7.8 408.91 0 405.21 0 405.36-7.5 405.21-24.9 408.96-24.9ZM433-24.9L433.2-24.6 432.95-21.45 428.3-21.8 425.8-21.8 425.65-7.8 425.8 0 422.05 0 422.2-7.5 422.1-21.8 419.6-21.8 414.85-21.45 414.55-21.8 414.85-24.9 433-24.9ZM460.15-24.9L460-7.8 460.1 0 456.4 0 456.55-7.5 456.5-10.9 442.95-10.85 442.9-7.8 443 0 439.3 0 439.45-7.5 439.3-24.9 443.05-24.9 442.95-14.2 449.7-14.15 456.5-14.2 456.4-24.9 460.15-24.9ZM496.65-24.9L496.5-12.25 496.5-8.65Q496.55-4.4 493.92-2.05 491.3 0.3 486.4 0.3L486.4 0.3Q481.55 0.3 479-2.02 476.45-4.35 476.55-8.65L476.55-8.65 476.6-12.45 476.55-24.9 480.3-24.9 480.1-9.25Q480.05-6.1 481.67-4.5 483.3-2.9 486.55-2.9L486.55-2.9Q489.75-2.9 491.4-4.5 493.05-6.1 493-9.25L493-9.25 492.85-24.9 496.65-24.9ZM512.14-25.15Q515.19-25.15 518.24-23.95L518.24-23.95 517.59-20.25 516.99-20.1Q515.59-21.2 514.34-21.73 513.09-22.25 511.74-22.25L511.74-22.25Q509.59-22.25 508.34-21.13 507.09-20 507.09-18.55L507.09-18.55Q507.09-17.1 508.32-16.2 509.54-15.3 512.09-14.2L512.09-14.2Q514.34-13.2 515.67-12.4 516.99-11.6 517.97-10.28 518.94-8.95 518.94-7.05L518.94-7.05Q518.94-5.1 517.89-3.43 516.84-1.75 514.82-0.73 512.79 0.3 509.99 0.3L509.99 0.3Q508.24 0.3 506.32-0.13 504.39-0.55 502.74-1.4L502.74-1.4 503.19-5.35 503.69-5.55Q505.09-4.15 506.97-3.38 508.84-2.6 510.44-2.6L510.44-2.6Q512.54-2.6 513.89-3.73 515.24-4.85 515.24-6.45L515.24-6.45Q515.24-7.95 514.02-8.85 512.79-9.75 510.19-10.95L510.19-10.95Q508.04-11.9 506.67-12.7 505.29-13.5 504.34-14.83 503.39-16.15 503.39-18.05L503.39-18.05Q503.39-20.05 504.47-21.65 505.54-23.25 507.52-24.2 509.49-25.15 512.14-25.15L512.14-25.15Z" opacity="1" transform="matrix(1,0,0,1,0,0)" fill="black" class="slogan-text-1" id="SvgjsPath1888"></path></svg></g></svg></g></svg></g></svg></g></svg></g><defs><mask></mask></defs></svg><rect width="395.52" height="111.71077760558032" fill="black" stroke="none" visibility="hidden"></rect></g></mask><linearGradient x1="0" x2="1" y1="0.5" y2="0.5" id="112cb355-a504-434d-8969-bf7c684a5c88"><stop stop-color="#f00b51" offset="0"></stop><stop stop-color="#730062" offset="1"></stop></linearGradient><rect width="395.52" height="121.71506592900343" fill="url(#112cb355-a504-434d-8969-bf7c684a5c88)" mask="url(#20cd4ed4-0a14-4b67-a41e-737e86052866)" data-fill-palette-color="primary"></rect><mask id="e6069f38-c818-4708-b066-62a296efba67"><g id="SvgjsG1921"><svg viewBox="0 0 395.52 111.71077760558032" height="111.71077760558032" width="395.52"><g><svg viewBox="0 0 395.52 111.71077760558032" height="111.71077760558032" width="395.52"><g><svg viewBox="0 0 395.52 111.71077760558032" height="111.71077760558032" width="395.52"><g id="SvgjsG1920"><svg viewBox="0 0 395.52 111.71077760558032" height="111.71077760558032" width="395.52" id="SvgjsSvg1919"><g><rect width="395.52" height="93.53011949848914" fill="black" stroke-width="8.962371322224001" stroke="url(#4018e46d-c304-4aa3-a6e1-e7e4ee5cd735)" data-stroke-palette-color="tertiary"></rect><rect width="395.52" height="28.184946430514284" y="93.53011949848914" fill="white"></rect></g><g><svg viewBox="0 0 395.52 92.53011949848914" height="92.53011949848914" width="395.52"><g transform="matrix(1,0,0,1,23.461705032,23.461705032000005)"><svg width="348.596589936" viewBox="1.5 -36 280.87 36.75" height="45.60670943448913" data-palette-color="url(#112cb355-a504-434d-8969-bf7c684a5c88)"></svg></g></svg></g><g transform="matrix(1,0,0,1,75.54432,92.53011949848914)"><svg viewBox="0 0 244.43135999999998 19.180658107091176" height="19.180658107091176" width="244.43135999999998"><g transform="matrix(1,0,0,1,20,3.2)"><svg width="204.43135999999998" viewBox="0.75 -32.05 518.19 32.4" height="12.780658107091174" data-palette-color="#000000"><path d="M14.65-11.6L14.6-9.35 14.7 0 10.75 0 10.95-9.35 10.9-11.45 0.75-32.05 5.05-32.05 5.7-30.25 12.7-15.85 13.05-15.85 20.75-30.15 21.5-32.05 25.7-32.05 14.65-11.6ZM39-25.2Q44.45-25.2 47.37-22 50.3-18.8 50.3-12.95L50.3-12.95Q50.3-6.6 47.17-3.13 44.05 0.35 38.25 0.35L38.25 0.35Q32.85 0.35 29.9-2.93 26.95-6.2 26.95-12.25L26.95-12.25Q26.95-18.45 30.1-21.83 33.25-25.2 39-25.2L39-25.2ZM38.65-22.05Q34.7-22.05 32.77-19.8 30.85-17.55 30.85-12.7L30.85-12.7Q30.85-7.5 32.75-5.15 34.65-2.8 38.55-2.8L38.55-2.8Q42.55-2.8 44.5-5.1 46.45-7.4 46.45-12.3L46.45-12.3Q46.45-17.35 44.52-19.7 42.6-22.05 38.65-22.05L38.65-22.05ZM76.34-24.9L76.2-12.25 76.2-8.65Q76.25-4.4 73.62-2.05 71 0.3 66.09 0.3L66.09 0.3Q61.25 0.3 58.7-2.02 56.15-4.35 56.25-8.65L56.25-8.65 56.3-12.45 56.25-24.9 60-24.9 59.8-9.25Q59.75-6.1 61.37-4.5 63-2.9 66.25-2.9L66.25-2.9Q69.45-2.9 71.09-4.5 72.75-6.1 72.7-9.25L72.7-9.25 72.55-24.9 76.34-24.9ZM95.94-10.05Q98.99-5.4 102.69-0.9L102.69-0.9 102.64-0.4Q100.54 0.25 99.19 0.35L99.19 0.35 98.54-0.05Q94.74-5.8 92.79-9.1L92.79-9.1 88.09-9.05 88.09-7.8 88.19 0 84.49 0 84.64-7.5 84.49-24.9 92.99-24.95Q96.94-24.95 99.07-23.1 101.19-21.25 101.19-17.75L101.19-17.75Q101.19-15.2 99.82-13.2 98.44-11.2 95.94-10.05L95.94-10.05ZM88.19-21.9L88.14-12.15 92.84-12Q97.29-13.25 97.29-17.45L97.29-17.45Q97.29-19.65 95.99-20.75 94.69-21.85 92.04-21.95L92.04-21.95 88.19-21.9ZM127.24-25.15Q131.39-25.15 134.44-23.4L134.44-23.4 133.74-19.95 133.29-19.8Q132.04-20.85 130.39-21.45 128.74-22.05 126.84-22.05L126.84-22.05Q123.14-22.05 121.19-19.68 119.24-17.3 119.24-12.6L119.24-12.6Q119.24-7.85 121.19-5.35 123.14-2.85 126.84-2.85L126.84-2.85Q128.64-2.85 130.46-3.48 132.29-4.1 133.74-5.15L133.74-5.15 134.19-5 133.84-1.55Q130.44 0.3 126.69 0.3L126.69 0.3Q121.19 0.3 118.24-2.98 115.29-6.25 115.29-12.3L115.29-12.3Q115.29-18.45 118.41-21.8 121.54-25.15 127.24-25.15L127.24-25.15ZM153.78-3.15L153.99-2.8 153.74 0 140.49 0 140.64-7.5 140.49-24.9 144.24-24.9 144.09-7.8 144.19-3.15 153.78-3.15ZM167.48-25.2Q172.93-25.2 175.86-22 178.78-18.8 178.78-12.95L178.78-12.95Q178.78-6.6 175.66-3.13 172.53 0.35 166.73 0.35L166.73 0.35Q161.33 0.35 158.38-2.93 155.43-6.2 155.43-12.25L155.43-12.25Q155.43-18.45 158.58-21.83 161.73-25.2 167.48-25.2L167.48-25.2ZM167.13-22.05Q163.18-22.05 161.26-19.8 159.33-17.55 159.33-12.7L159.33-12.7Q159.33-7.5 161.23-5.15 163.13-2.8 167.03-2.8L167.03-2.8Q171.03-2.8 172.98-5.1 174.93-7.4 174.93-12.3L174.93-12.3Q174.93-17.35 173.01-19.7 171.08-22.05 167.13-22.05L167.13-22.05ZM199.08-24.9L199.28-24.6 199.03-21.45 194.38-21.8 191.88-21.8 191.73-7.8 191.88 0 188.13 0 188.28-7.5 188.18-21.8 185.68-21.8 180.93-21.45 180.63-21.8 180.93-24.9 199.08-24.9ZM226.23-24.9L226.08-7.8 226.18 0 222.48 0 222.63-7.5 222.58-10.9 209.03-10.85 208.98-7.8 209.08 0 205.38 0 205.53-7.5 205.38-24.9 209.13-24.9 209.03-14.2 215.78-14.15 222.58-14.2 222.48-24.9 226.23-24.9ZM243.73-3L250.38-3.2 250.68-2.9 250.33 0 235.18 0 235.33-7.5 235.18-24.9 250.43-24.9 250.68-24.6 250.38-21.7 244.08-21.9 238.88-21.85 238.83-14.3 243.78-14.25 248.13-14.4 248.38-14.05 248.08-11.1 243.48-11.25 238.83-11.2 238.78-7.8 238.83-3.05 243.73-3ZM264.27-25.15Q267.32-25.15 270.37-23.95L270.37-23.95 269.72-20.25 269.12-20.1Q267.72-21.2 266.47-21.73 265.22-22.25 263.87-22.25L263.87-22.25Q261.72-22.25 260.47-21.13 259.22-20 259.22-18.55L259.22-18.55Q259.22-17.1 260.45-16.2 261.67-15.3 264.22-14.2L264.22-14.2Q266.47-13.2 267.8-12.4 269.12-11.6 270.1-10.28 271.07-8.95 271.07-7.05L271.07-7.05Q271.07-5.1 270.02-3.43 268.97-1.75 266.95-0.73 264.92 0.3 262.12 0.3L262.12 0.3Q260.37 0.3 258.45-0.13 256.52-0.55 254.87-1.4L254.87-1.4 255.32-5.35 255.82-5.55Q257.22-4.15 259.1-3.38 260.97-2.6 262.57-2.6L262.57-2.6Q264.67-2.6 266.02-3.73 267.37-4.85 267.37-6.45L267.37-6.45Q267.37-7.95 266.15-8.85 264.92-9.75 262.32-10.95L262.32-10.95Q260.17-11.9 258.8-12.7 257.42-13.5 256.47-14.83 255.52-16.15 255.52-18.05L255.52-18.05Q255.52-20.05 256.6-21.65 257.67-23.25 259.65-24.2 261.62-25.15 264.27-25.15L264.27-25.15ZM297.07-24.9L305.82 0 302.07 0 301.47-2.7 300.17-6.4 294.22-6.45 288.92-6.4 287.57-2.9 286.87 0 283.17 0 292.77-24.9 297.07-24.9ZM294.52-9.4L299.12-9.45 294.97-21.25 294.67-21.25 290.12-9.45 294.52-9.4ZM323.47-10.05Q326.52-5.4 330.22-0.9L330.22-0.9 330.17-0.4Q328.07 0.25 326.72 0.35L326.72 0.35 326.07-0.05Q322.27-5.8 320.32-9.1L320.32-9.1 315.62-9.05 315.62-7.8 315.72 0 312.02 0 312.17-7.5 312.02-24.9 320.52-24.95Q324.47-24.95 326.59-23.1 328.72-21.25 328.72-17.75L328.72-17.75Q328.72-15.2 327.34-13.2 325.97-11.2 323.47-10.05L323.47-10.05ZM315.72-21.9L315.67-12.15 320.37-12Q324.82-13.25 324.82-17.45L324.82-17.45Q324.82-19.65 323.52-20.75 322.22-21.85 319.57-21.95L319.57-21.95 315.72-21.9ZM345.36-3L352.01-3.2 352.31-2.9 351.96 0 336.81 0 336.96-7.5 336.81-24.9 352.06-24.9 352.31-24.6 352.01-21.7 345.71-21.9 340.51-21.85 340.46-14.3 345.41-14.25 349.76-14.4 350.01-14.05 349.71-11.1 345.11-11.25 340.46-11.2 340.41-7.8 340.46-3.05 345.36-3ZM399.76-24.9L390.46 0 386.46 0 381.56-13.6 381.26-13.6 376.11 0 372.11 0 363.96-24.9 367.71-24.9 368.16-22.25 374.26-4.15 374.51-4.15 379.96-18.7 377.91-24.9 381.81-24.9 382.36-21.95 388.46-4.15 388.76-4.15 395.51-22.05 396.11-24.9 399.76-24.9ZM408.96-24.9L408.81-7.8 408.91 0 405.21 0 405.36-7.5 405.21-24.9 408.96-24.9ZM433-24.9L433.2-24.6 432.95-21.45 428.3-21.8 425.8-21.8 425.65-7.8 425.8 0 422.05 0 422.2-7.5 422.1-21.8 419.6-21.8 414.85-21.45 414.55-21.8 414.85-24.9 433-24.9ZM460.15-24.9L460-7.8 460.1 0 456.4 0 456.55-7.5 456.5-10.9 442.95-10.85 442.9-7.8 443 0 439.3 0 439.45-7.5 439.3-24.9 443.05-24.9 442.95-14.2 449.7-14.15 456.5-14.2 456.4-24.9 460.15-24.9ZM496.65-24.9L496.5-12.25 496.5-8.65Q496.55-4.4 493.92-2.05 491.3 0.3 486.4 0.3L486.4 0.3Q481.55 0.3 479-2.02 476.45-4.35 476.55-8.65L476.55-8.65 476.6-12.45 476.55-24.9 480.3-24.9 480.1-9.25Q480.05-6.1 481.67-4.5 483.3-2.9 486.55-2.9L486.55-2.9Q489.75-2.9 491.4-4.5 493.05-6.1 493-9.25L493-9.25 492.85-24.9 496.65-24.9ZM512.14-25.15Q515.19-25.15 518.24-23.95L518.24-23.95 517.59-20.25 516.99-20.1Q515.59-21.2 514.34-21.73 513.09-22.25 511.74-22.25L511.74-22.25Q509.59-22.25 508.34-21.13 507.09-20 507.09-18.55L507.09-18.55Q507.09-17.1 508.32-16.2 509.54-15.3 512.09-14.2L512.09-14.2Q514.34-13.2 515.67-12.4 516.99-11.6 517.97-10.28 518.94-8.95 518.94-7.05L518.94-7.05Q518.94-5.1 517.89-3.43 516.84-1.75 514.82-0.73 512.79 0.3 509.99 0.3L509.99 0.3Q508.24 0.3 506.32-0.13 504.39-0.55 502.74-1.4L502.74-1.4 503.19-5.35 503.69-5.55Q505.09-4.15 506.97-3.38 508.84-2.6 510.44-2.6L510.44-2.6Q512.54-2.6 513.89-3.73 515.24-4.85 515.24-6.45L515.24-6.45Q515.24-7.95 514.02-8.85 512.79-9.75 510.19-10.95L510.19-10.95Q508.04-11.9 506.67-12.7 505.29-13.5 504.34-14.83 503.39-16.15 503.39-18.05L503.39-18.05Q503.39-20.05 504.47-21.65 505.54-23.25 507.52-24.2 509.49-25.15 512.14-25.15L512.14-25.15Z" opacity="1" transform="matrix(1,0,0,1,0,0)" fill="black" class="slogan-text-1" id="SvgjsPath1918"></path></svg></g></svg></g></svg></g></svg></g></svg></g><defs><mask></mask></defs><mask><g id="SvgjsG1917"><svg viewBox="0 0 395.52 111.71077760558032" height="111.71077760558032" width="395.52"><g><svg viewBox="0 0 395.52 111.71077760558032" height="111.71077760558032" width="395.52"><g><svg viewBox="0 0 395.52 111.71077760558032" height="111.71077760558032" width="395.52"><g id="SvgjsG1916"><svg viewBox="0 0 395.52 111.71077760558032" height="111.71077760558032" width="395.52" id="SvgjsSvg1915"><g><rect width="395.52" height="93.53011949848914" fill="black" stroke-width="8.962371322224001" stroke="url(#4018e46d-c304-4aa3-a6e1-e7e4ee5cd735)" data-stroke-palette-color="tertiary"></rect><rect width="395.52" height="28.184946430514284" y="93.53011949848914" fill="black"></rect></g><g><svg viewBox="0 0 395.52 92.53011949848914" height="92.53011949848914" width="395.52"><g transform="matrix(1,0,0,1,23.461705032,23.461705032000005)"><svg width="348.596589936" viewBox="1.5 -36 280.87 36.75" height="45.60670943448913" data-palette-color="url(#112cb355-a504-434d-8969-bf7c684a5c88)"><path d="M19.35-7.05L6.55-7.05 6.55-10.95 19.35-10.95 19.35-7.05ZM10.1-35.25L14.6-35.25 6 0 1.5 0 10.1-35.25ZM10.2-35.25L14.7-35.25 23.3 0 18.85 0 10.2-35.25ZM31.65-3.95L26.8-3.95 41.35-31.3 46.15-31.3 31.65-3.95ZM46.15 0L26.8 0 26.8-3.95 46.15-3.95 46.15 0ZM46.15-31.3L26.8-31.3 26.8-35.25 46.15-35.25 46.15-31.3ZM73.94-15.55L63.84-15.55 63.84-19.6 73.94-19.6 73.94-15.55ZM60.54 0L60.54-35.25 65.09-35.25 65.09 0 60.54 0ZM63.59-31.3L63.59-35.25 76.44-35.25 76.44-31.3 63.59-31.3ZM97.39 0L92.84 0 92.84-17.2 97.39-17.2 97.39 0ZM86.74 0.75L86.74 0.75 87.09-3Q88.89-3 90.17-3.9 91.44-4.8 92.14-6.55 92.84-8.3 92.84-10.7L92.84-10.7 95.09-10.8Q95.09-7.4 93.99-4.8 92.89-2.2 91.02-0.73 89.14 0.75 86.74 0.75ZM87.09-3L86.74 0.75Q84.49 0.75 82.64-0.3 80.79-1.35 79.69-3.18 78.59-5 78.59-7.25L78.59-7.25 82.89-7.4Q82.89-5.5 84.17-4.25 85.44-3 87.09-3L87.09-3ZM82.89-7.4L78.59-7.25Q78.59-9.6 79.77-11.38 80.94-13.15 82.94-14.2 84.94-15.25 87.49-15.25L87.49-15.25 87.74-11.75Q85.64-11.75 84.27-10.53 82.89-9.3 82.89-7.4L82.89-7.4ZM95.19-11.75L87.74-11.75 87.49-15.25 95.19-15.25 95.19-11.75ZM95.09-10.8L92.84-10.7 92.84-17.15 95.09-17.15 95.09-10.8ZM97.39-17.1L97.39-17.1 92.84-17.1Q92.84-19.3 91.52-20.7 90.19-22.1 88.09-22.1L88.09-22.1 88.09-26Q90.79-26 92.87-24.85 94.94-23.7 96.17-21.68 97.39-19.65 97.39-17.1ZM83.39-17.7L83.39-17.7 79.19-18.55Q79.49-20.8 80.72-22.45 81.94-24.1 83.87-25.05 85.79-26 88.14-26L88.14-26 88.14-22.1Q86.29-22.1 84.97-21.03 83.64-19.95 83.39-17.7ZM114.49-6.5L114.49-6.5Q114.49-7.75 113.59-8.58 112.69-9.4 111.26-10.08 109.84-10.75 108.26-11.45 106.69-12.15 105.26-13.08 103.84-14 102.94-15.43 102.04-16.85 102.04-18.9L102.04-18.9Q102.04-18.9 102.46-18.9 102.89-18.9 103.56-18.9 104.24-18.9 104.89-18.9 105.54-18.9 105.99-18.9 106.44-18.9 106.44-18.9L106.44-18.9Q106.44-17.65 107.34-16.82 108.24-16 109.66-15.35 111.09-14.7 112.69-13.98 114.29-13.25 115.69-12.3 117.09-11.35 118.01-9.98 118.94-8.6 118.94-6.5L118.94-6.5Q118.94-6.5 118.49-6.5 118.04-6.5 117.36-6.5 116.69-6.5 116.04-6.5 115.39-6.5 114.94-6.5 114.49-6.5 114.49-6.5ZM110.24 0.75L110.24 0.75 110.24-3.2Q112.09-3.2 113.29-4.13 114.49-5.05 114.49-6.5L114.49-6.5 118.94-6.5Q118.94-4.4 117.81-2.75 116.69-1.1 114.74-0.18 112.79 0.75 110.24 0.75ZM106.44-18.9L102.04-18.9Q102.04-20.95 103.06-22.58 104.09-24.2 105.94-25.13 107.79-26.05 110.04-26.05L110.04-26.05 110.04-22.1Q108.49-22.1 107.46-21.2 106.44-20.3 106.44-18.9L106.44-18.9ZM101.29-6.7L105.49-7.55Q105.74-5.35 107.09-4.28 108.44-3.2 110.24-3.2L110.24-3.2 110.24 0.75Q107.94 0.75 105.99-0.2 104.04-1.15 102.81-2.85 101.59-4.55 101.29-6.7L101.29-6.7ZM118.99-18.6L114.74-17.75Q114.49-20 113.16-21.05 111.84-22.1 110.04-22.1L110.04-22.1 110.04-26.05Q112.39-26.05 114.29-25.1 116.19-24.15 117.44-22.48 118.69-20.8 118.99-18.6L118.99-18.6ZM128.19 0L123.64 0 123.64-25.25 128.19-25.25 128.19 0ZM142.24 0L137.69 0 137.69-17.2 142.24-17.2 142.24 0ZM142.24-17.2L137.69-17.2Q137.69-19.3 136.39-20.63 135.09-21.95 133.04-21.95L133.04-21.95 134.19-26Q136.49-26 138.31-24.85 140.14-23.7 141.19-21.7 142.24-19.7 142.24-17.2L142.24-17.2ZM128.19-17.1L126.19-17.1Q126.19-19.65 127.24-21.68 128.29-23.7 130.09-24.85 131.89-26 134.19-26L134.19-26 133.04-21.95Q130.89-21.95 129.54-20.6 128.19-19.25 128.19-17.1L128.19-17.1ZM128.19 0L123.64 0 123.64-36 128.19-36 128.19 0ZM152.43 0L147.88 0 147.88-25.25 152.43-25.25 152.43 0ZM150.13-28.6L150.13-28.6Q148.88-28.6 148.03-29.45 147.18-30.3 147.18-31.55L147.18-31.55Q147.18-32.8 148.03-33.68 148.88-34.55 150.13-34.55L150.13-34.55Q151.38-34.55 152.26-33.68 153.13-32.8 153.13-31.55L153.13-31.55Q153.13-30.3 152.26-29.45 151.38-28.6 150.13-28.6ZM176.18-8.95L171.63-8.95 171.63-16.3 176.18-16.3 176.18-8.95ZM162.13-8.95L157.58-8.95 157.58-16.3 162.13-16.3 162.13-8.95ZM167.03-22.05L166.73-22.05 166.73-26 167.03-26 167.03-22.05ZM167.03 0.75L166.73 0.75 166.73-3.2 167.03-3.2 167.03 0.75ZM162.13-16.25L157.58-16.25Q157.58-19.05 158.81-21.25 160.03-23.45 162.11-24.73 164.18-26 166.83-26L166.83-26 166.83-22.05Q164.63-22.05 163.38-20.55 162.13-19.05 162.13-16.25L162.13-16.25ZM176.18-16.25L176.18-16.25 171.63-16.25Q171.63-19.05 170.41-20.55 169.18-22.05 166.93-22.05L166.93-22.05 166.93-26Q169.58-26 171.66-24.73 173.73-23.45 174.96-21.25 176.18-19.05 176.18-16.25ZM157.58-9L157.58-9 162.13-9Q162.13-6.25 163.38-4.73 164.63-3.2 166.83-3.2L166.83-3.2 166.83 0.75Q164.18 0.75 162.11-0.53 160.03-1.8 158.81-4 157.58-6.2 157.58-9ZM171.63-9L176.18-9Q176.18-6.2 174.96-4 173.73-1.8 171.66-0.53 169.58 0.75 166.93 0.75L166.93 0.75 166.93-3.2Q169.18-3.2 170.41-4.73 171.63-6.25 171.63-9L171.63-9ZM185.38 0L180.83 0 180.83-25.25 185.38-25.25 185.38 0ZM199.43 0L194.88 0 194.88-17.2 199.43-17.2 199.43 0ZM199.43-17.2L194.88-17.2Q194.88-19.3 193.58-20.63 192.28-21.95 190.23-21.95L190.23-21.95 191.38-26Q193.68-26 195.5-24.85 197.33-23.7 198.38-21.7 199.43-19.7 199.43-17.2L199.43-17.2ZM185.38-17.1L183.38-17.1Q183.38-19.65 184.43-21.68 185.48-23.7 187.28-24.85 189.08-26 191.38-26L191.38-26 190.23-21.95Q188.08-21.95 186.73-20.6 185.38-19.25 185.38-17.1L185.38-17.1ZM230.87-15.65L215.57-15.65 215.57-19.55 230.87-19.55 230.87-15.65ZM233.92 0L229.37 0 229.37-35.25 233.92-35.25 233.92 0ZM218.62 0L214.07 0 214.07-35.25 218.62-35.25 218.62 0ZM253.22-25.25L257.77-25.25 257.77 0 253.22 0 253.22-25.25ZM239.17-25.25L243.72-25.25 243.72-8.05 239.17-8.05 239.17-25.25ZM239.17-8.05L243.72-8.05Q243.72-5.95 245.05-4.63 246.37-3.3 248.42-3.3L248.42-3.3 247.27 0.75Q244.92 0.75 243.1-0.4 241.27-1.55 240.22-3.55 239.17-5.55 239.17-8.05L239.17-8.05ZM253.22-8.2L255.22-8.2Q255.22-5.65 254.2-3.63 253.17-1.6 251.35-0.43 249.52 0.75 247.27 0.75L247.27 0.75 248.42-3.3Q250.52-3.3 251.87-4.65 253.22-6 253.22-8.2L253.22-8.2ZM268.32-25.2L263.77-25.2 263.77-35.25 268.32-35.25 268.32-25.2ZM268.32-25.25L268.32 0 263.77 0 263.77-25.25 268.32-25.25ZM282.37-17.2L282.37-8.05 277.82-8.05 277.82-17.2 282.37-17.2ZM282.37-17.2L277.82-17.2Q277.82-19.3 276.52-20.63 275.22-21.95 273.17-21.95L273.17-21.95 274.32-26Q276.62-26 278.44-24.85 280.27-23.7 281.32-21.7 282.37-19.7 282.37-17.2L282.37-17.2ZM268.32-17.1L266.32-17.1Q266.32-19.65 267.37-21.68 268.42-23.7 270.22-24.85 272.02-26 274.32-26L274.32-26 273.17-21.95Q271.02-21.95 269.67-20.6 268.32-19.25 268.32-17.1L268.32-17.1ZM277.82-8.05L277.82-8.05 282.37-8.05Q282.37-5.55 281.32-3.55 280.27-1.55 278.44-0.4 276.62 0.75 274.32 0.75L274.32 0.75 273.17-3.3Q275.22-3.3 276.52-4.63 277.82-5.95 277.82-8.05ZM266.32-8.2L266.32-8.2 268.32-8.2Q268.32-6 269.67-4.65 271.02-3.3 273.17-3.3L273.17-3.3 274.32 0.75Q272.02 0.75 270.22-0.43 268.42-1.6 267.37-3.63 266.32-5.65 266.32-8.2Z" opacity="1" transform="matrix(1,0,0,1,0,0)" fill="black" class="wordmark-text-0" id="SvgjsPath1914"></path></svg></g></svg></g><g transform="matrix(1,0,0,1,75.54432,92.53011949848914)"><svg viewBox="0 0 244.43135999999998 19.180658107091176" height="19.180658107091176" width="244.43135999999998"><g transform="matrix(1,0,0,1,20,3.2)"><svg width="204.43135999999998" viewBox="0.75 -32.05 518.19 32.4" height="12.780658107091174" data-palette-color="#000000"><path d="M14.65-11.6L14.6-9.35 14.7 0 10.75 0 10.95-9.35 10.9-11.45 0.75-32.05 5.05-32.05 5.7-30.25 12.7-15.85 13.05-15.85 20.75-30.15 21.5-32.05 25.7-32.05 14.65-11.6ZM39-25.2Q44.45-25.2 47.37-22 50.3-18.8 50.3-12.95L50.3-12.95Q50.3-6.6 47.17-3.13 44.05 0.35 38.25 0.35L38.25 0.35Q32.85 0.35 29.9-2.93 26.95-6.2 26.95-12.25L26.95-12.25Q26.95-18.45 30.1-21.83 33.25-25.2 39-25.2L39-25.2ZM38.65-22.05Q34.7-22.05 32.77-19.8 30.85-17.55 30.85-12.7L30.85-12.7Q30.85-7.5 32.75-5.15 34.65-2.8 38.55-2.8L38.55-2.8Q42.55-2.8 44.5-5.1 46.45-7.4 46.45-12.3L46.45-12.3Q46.45-17.35 44.52-19.7 42.6-22.05 38.65-22.05L38.65-22.05ZM76.34-24.9L76.2-12.25 76.2-8.65Q76.25-4.4 73.62-2.05 71 0.3 66.09 0.3L66.09 0.3Q61.25 0.3 58.7-2.02 56.15-4.35 56.25-8.65L56.25-8.65 56.3-12.45 56.25-24.9 60-24.9 59.8-9.25Q59.75-6.1 61.37-4.5 63-2.9 66.25-2.9L66.25-2.9Q69.45-2.9 71.09-4.5 72.75-6.1 72.7-9.25L72.7-9.25 72.55-24.9 76.34-24.9ZM95.94-10.05Q98.99-5.4 102.69-0.9L102.69-0.9 102.64-0.4Q100.54 0.25 99.19 0.35L99.19 0.35 98.54-0.05Q94.74-5.8 92.79-9.1L92.79-9.1 88.09-9.05 88.09-7.8 88.19 0 84.49 0 84.64-7.5 84.49-24.9 92.99-24.95Q96.94-24.95 99.07-23.1 101.19-21.25 101.19-17.75L101.19-17.75Q101.19-15.2 99.82-13.2 98.44-11.2 95.94-10.05L95.94-10.05ZM88.19-21.9L88.14-12.15 92.84-12Q97.29-13.25 97.29-17.45L97.29-17.45Q97.29-19.65 95.99-20.75 94.69-21.85 92.04-21.95L92.04-21.95 88.19-21.9ZM127.24-25.15Q131.39-25.15 134.44-23.4L134.44-23.4 133.74-19.95 133.29-19.8Q132.04-20.85 130.39-21.45 128.74-22.05 126.84-22.05L126.84-22.05Q123.14-22.05 121.19-19.68 119.24-17.3 119.24-12.6L119.24-12.6Q119.24-7.85 121.19-5.35 123.14-2.85 126.84-2.85L126.84-2.85Q128.64-2.85 130.46-3.48 132.29-4.1 133.74-5.15L133.74-5.15 134.19-5 133.84-1.55Q130.44 0.3 126.69 0.3L126.69 0.3Q121.19 0.3 118.24-2.98 115.29-6.25 115.29-12.3L115.29-12.3Q115.29-18.45 118.41-21.8 121.54-25.15 127.24-25.15L127.24-25.15ZM153.78-3.15L153.99-2.8 153.74 0 140.49 0 140.64-7.5 140.49-24.9 144.24-24.9 144.09-7.8 144.19-3.15 153.78-3.15ZM167.48-25.2Q172.93-25.2 175.86-22 178.78-18.8 178.78-12.95L178.78-12.95Q178.78-6.6 175.66-3.13 172.53 0.35 166.73 0.35L166.73 0.35Q161.33 0.35 158.38-2.93 155.43-6.2 155.43-12.25L155.43-12.25Q155.43-18.45 158.58-21.83 161.73-25.2 167.48-25.2L167.48-25.2ZM167.13-22.05Q163.18-22.05 161.26-19.8 159.33-17.55 159.33-12.7L159.33-12.7Q159.33-7.5 161.23-5.15 163.13-2.8 167.03-2.8L167.03-2.8Q171.03-2.8 172.98-5.1 174.93-7.4 174.93-12.3L174.93-12.3Q174.93-17.35 173.01-19.7 171.08-22.05 167.13-22.05L167.13-22.05ZM199.08-24.9L199.28-24.6 199.03-21.45 194.38-21.8 191.88-21.8 191.73-7.8 191.88 0 188.13 0 188.28-7.5 188.18-21.8 185.68-21.8 180.93-21.45 180.63-21.8 180.93-24.9 199.08-24.9ZM226.23-24.9L226.08-7.8 226.18 0 222.48 0 222.63-7.5 222.58-10.9 209.03-10.85 208.98-7.8 209.08 0 205.38 0 205.53-7.5 205.38-24.9 209.13-24.9 209.03-14.2 215.78-14.15 222.58-14.2 222.48-24.9 226.23-24.9ZM243.73-3L250.38-3.2 250.68-2.9 250.33 0 235.18 0 235.33-7.5 235.18-24.9 250.43-24.9 250.68-24.6 250.38-21.7 244.08-21.9 238.88-21.85 238.83-14.3 243.78-14.25 248.13-14.4 248.38-14.05 248.08-11.1 243.48-11.25 238.83-11.2 238.78-7.8 238.83-3.05 243.73-3ZM264.27-25.15Q267.32-25.15 270.37-23.95L270.37-23.95 269.72-20.25 269.12-20.1Q267.72-21.2 266.47-21.73 265.22-22.25 263.87-22.25L263.87-22.25Q261.72-22.25 260.47-21.13 259.22-20 259.22-18.55L259.22-18.55Q259.22-17.1 260.45-16.2 261.67-15.3 264.22-14.2L264.22-14.2Q266.47-13.2 267.8-12.4 269.12-11.6 270.1-10.28 271.07-8.95 271.07-7.05L271.07-7.05Q271.07-5.1 270.02-3.43 268.97-1.75 266.95-0.73 264.92 0.3 262.12 0.3L262.12 0.3Q260.37 0.3 258.45-0.13 256.52-0.55 254.87-1.4L254.87-1.4 255.32-5.35 255.82-5.55Q257.22-4.15 259.1-3.38 260.97-2.6 262.57-2.6L262.57-2.6Q264.67-2.6 266.02-3.73 267.37-4.85 267.37-6.45L267.37-6.45Q267.37-7.95 266.15-8.85 264.92-9.75 262.32-10.95L262.32-10.95Q260.17-11.9 258.8-12.7 257.42-13.5 256.47-14.83 255.52-16.15 255.52-18.05L255.52-18.05Q255.52-20.05 256.6-21.65 257.67-23.25 259.65-24.2 261.62-25.15 264.27-25.15L264.27-25.15ZM297.07-24.9L305.82 0 302.07 0 301.47-2.7 300.17-6.4 294.22-6.45 288.92-6.4 287.57-2.9 286.87 0 283.17 0 292.77-24.9 297.07-24.9ZM294.52-9.4L299.12-9.45 294.97-21.25 294.67-21.25 290.12-9.45 294.52-9.4ZM323.47-10.05Q326.52-5.4 330.22-0.9L330.22-0.9 330.17-0.4Q328.07 0.25 326.72 0.35L326.72 0.35 326.07-0.05Q322.27-5.8 320.32-9.1L320.32-9.1 315.62-9.05 315.62-7.8 315.72 0 312.02 0 312.17-7.5 312.02-24.9 320.52-24.95Q324.47-24.95 326.59-23.1 328.72-21.25 328.72-17.75L328.72-17.75Q328.72-15.2 327.34-13.2 325.97-11.2 323.47-10.05L323.47-10.05ZM315.72-21.9L315.67-12.15 320.37-12Q324.82-13.25 324.82-17.45L324.82-17.45Q324.82-19.65 323.52-20.75 322.22-21.85 319.57-21.95L319.57-21.95 315.72-21.9ZM345.36-3L352.01-3.2 352.31-2.9 351.96 0 336.81 0 336.96-7.5 336.81-24.9 352.06-24.9 352.31-24.6 352.01-21.7 345.71-21.9 340.51-21.85 340.46-14.3 345.41-14.25 349.76-14.4 350.01-14.05 349.71-11.1 345.11-11.25 340.46-11.2 340.41-7.8 340.46-3.05 345.36-3ZM399.76-24.9L390.46 0 386.46 0 381.56-13.6 381.26-13.6 376.11 0 372.11 0 363.96-24.9 367.71-24.9 368.16-22.25 374.26-4.15 374.51-4.15 379.96-18.7 377.91-24.9 381.81-24.9 382.36-21.95 388.46-4.15 388.76-4.15 395.51-22.05 396.11-24.9 399.76-24.9ZM408.96-24.9L408.81-7.8 408.91 0 405.21 0 405.36-7.5 405.21-24.9 408.96-24.9ZM433-24.9L433.2-24.6 432.95-21.45 428.3-21.8 425.8-21.8 425.65-7.8 425.8 0 422.05 0 422.2-7.5 422.1-21.8 419.6-21.8 414.85-21.45 414.55-21.8 414.85-24.9 433-24.9ZM460.15-24.9L460-7.8 460.1 0 456.4 0 456.55-7.5 456.5-10.9 442.95-10.85 442.9-7.8 443 0 439.3 0 439.45-7.5 439.3-24.9 443.05-24.9 442.95-14.2 449.7-14.15 456.5-14.2 456.4-24.9 460.15-24.9ZM496.65-24.9L496.5-12.25 496.5-8.65Q496.55-4.4 493.92-2.05 491.3 0.3 486.4 0.3L486.4 0.3Q481.55 0.3 479-2.02 476.45-4.35 476.55-8.65L476.55-8.65 476.6-12.45 476.55-24.9 480.3-24.9 480.1-9.25Q480.05-6.1 481.67-4.5 483.3-2.9 486.55-2.9L486.55-2.9Q489.75-2.9 491.4-4.5 493.05-6.1 493-9.25L493-9.25 492.85-24.9 496.65-24.9ZM512.14-25.15Q515.19-25.15 518.24-23.95L518.24-23.95 517.59-20.25 516.99-20.1Q515.59-21.2 514.34-21.73 513.09-22.25 511.74-22.25L511.74-22.25Q509.59-22.25 508.34-21.13 507.09-20 507.09-18.55L507.09-18.55Q507.09-17.1 508.32-16.2 509.54-15.3 512.09-14.2L512.09-14.2Q514.34-13.2 515.67-12.4 516.99-11.6 517.97-10.28 518.94-8.95 518.94-7.05L518.94-7.05Q518.94-5.1 517.89-3.43 516.84-1.75 514.82-0.73 512.79 0.3 509.99 0.3L509.99 0.3Q508.24 0.3 506.32-0.13 504.39-0.55 502.74-1.4L502.74-1.4 503.19-5.35 503.69-5.55Q505.09-4.15 506.97-3.38 508.84-2.6 510.44-2.6L510.44-2.6Q512.54-2.6 513.89-3.73 515.24-4.85 515.24-6.45L515.24-6.45Q515.24-7.95 514.02-8.85 512.79-9.75 510.19-10.95L510.19-10.95Q508.04-11.9 506.67-12.7 505.29-13.5 504.34-14.83 503.39-16.15 503.39-18.05L503.39-18.05Q503.39-20.05 504.47-21.65 505.54-23.25 507.52-24.2 509.49-25.15 512.14-25.15L512.14-25.15Z" opacity="1" transform="matrix(1,0,0,1,0,0)" fill="black" class="slogan-text-1" id="SvgjsPath1913"></path></svg></g></svg></g></svg></g></svg></g></svg></g><defs><mask></mask></defs></svg><rect width="395.52" height="111.71077760558032" fill="black" stroke="none" visibility="hidden"></rect></g></mask></svg><rect width="395.52" height="111.71077760558032" fill="black" stroke="none" visibility="hidden"></rect></g></mask><linearGradient x1="0" x2="1" y1="0.5" y2="0.5" id="4018e46d-c304-4aa3-a6e1-e7e4ee5cd735"><stop stop-color="#f00b51" offset="0"></stop><stop stop-color="#730062" offset="1"></stop></linearGradient></svg><rect width="395.52" height="111.71077760558032" fill="none" stroke="none" visibility="hidden"></rect></g></svg></g></svg>